<svg width="258" height="88" viewBox="0 0 258 88" fill="none" xmlns="http://www.w3.org/2000/svg">
<g filter="url(#filter0_b_22_10)">
<path d="M10 10.0001H70V87.143H10V10.0001Z" fill="white" fill-opacity="0.15"/>
</g>
<line x1="1.00654" y1="1.00524" x2="161.003" y2="2.05097" stroke="white" stroke-width="2"/>
<line x1="98.0065" y1="85" x2="258.003" y2="86.0458" stroke="white" stroke-width="2"/>
<mask id="path-4-outside-1_22_10" maskUnits="userSpaceOnUse" x="29.3999" y="31.0001" width="220" height="35" fill="black">
<rect fill="white" x="29.3999" y="31.0001" width="220" height="35"/>
<path d="M33.5999 32.9201V59.3201C33.5999 60.1735 33.7999 60.9735 34.1999 61.7201C34.5999 62.4401 34.7999 62.8135 34.7999 62.8401C34.7999 63.1601 34.5466 63.5068 34.0399 63.8801C33.5332 64.2268 33.1066 64.4001 32.7599 64.4001C32.1999 64.4001 31.6666 63.9201 31.1599 62.9601C30.6532 61.9735 30.3999 60.8935 30.3999 59.7201V32.9201C30.3999 32.3068 30.9332 32.0001 31.9999 32.0001C33.0666 32.0001 33.5999 32.3068 33.5999 32.9201Z"/>
<path d="M59.5121 45.6401V46.8401C59.5121 49.1068 59.0454 50.6668 58.1121 51.5201C57.1788 52.3735 55.4721 52.9201 52.9921 53.1601L45.1921 53.9201V58.6801C45.1921 60.7601 46.9254 61.8001 50.3921 61.8001C54.3388 61.8001 56.3121 60.8935 56.3121 59.0801V57.5601C56.3121 56.9468 56.8454 56.6401 57.9121 56.6401C58.9788 56.6401 59.5121 56.9468 59.5121 57.5601V58.6801C59.5121 62.6268 56.5788 64.6001 50.7121 64.6001C48.1254 64.6001 46.0188 64.0935 44.3921 63.0801C42.7921 62.0668 41.9921 60.4668 41.9921 58.2801V45.7201C41.9921 43.5068 42.8454 41.9068 44.5521 40.9201C46.2588 39.9068 48.4854 39.4001 51.2321 39.4001C53.9788 39.4001 56.0454 39.8801 57.4321 40.8401C58.8188 41.8001 59.5121 43.4001 59.5121 45.6401ZM45.1921 45.3201V51.1201L52.7121 50.3601C54.2321 50.2001 55.2054 49.8801 55.6321 49.4001C56.0854 48.9201 56.3121 48.0668 56.3121 46.8401V45.3201C56.3121 43.2401 54.4588 42.2001 50.7521 42.2001C47.0454 42.2001 45.1921 43.2401 45.1921 45.3201Z"/>
<path d="M81.6199 58.6801V45.3201C81.6199 43.2401 79.7932 42.2001 76.1399 42.2001C72.5132 42.2001 70.6999 43.2401 70.6999 45.3201V58.6801C70.6999 60.7601 72.5132 61.8001 76.1399 61.8001C79.7932 61.8001 81.6199 60.7601 81.6199 58.6801ZM84.8199 45.7201V58.2801C84.8199 60.4935 84.0332 62.1068 82.4599 63.1201C80.8866 64.1068 78.7932 64.6001 76.1799 64.6001C73.5666 64.6001 71.4599 64.1068 69.8599 63.1201C68.2866 62.1068 67.4999 60.4935 67.4999 58.2801V45.7201C67.4999 43.5068 68.2866 41.9068 69.8599 40.9201C71.4332 39.9068 73.5266 39.4001 76.1399 39.4001C78.7532 39.4001 80.8466 39.9068 82.4199 40.9201C84.0199 41.9068 84.8199 43.5068 84.8199 45.7201Z"/>
<path d="M94.5324 60.2401V63.6401C94.5324 64.2801 93.9591 64.6001 92.8124 64.6001C91.6924 64.6001 91.1324 64.2801 91.1324 63.6401V60.2401C91.1324 59.6001 91.6924 59.2801 92.8124 59.2801C93.9591 59.2801 94.5324 59.6001 94.5324 60.2401Z"/>
<path d="M106.059 35.3201V40.0001H110.259C110.793 40.0001 111.059 40.4668 111.059 41.4001C111.059 42.3335 110.793 42.8001 110.259 42.8001H106.059V59.3201C106.059 60.1735 106.259 60.9735 106.659 61.7201C107.059 62.4401 107.259 62.8135 107.259 62.8401C107.259 63.1601 107.006 63.5068 106.499 63.8801C105.993 64.2268 105.566 64.4001 105.219 64.4001C104.659 64.4001 104.126 63.9201 103.619 62.9601C103.113 61.9735 102.859 60.8935 102.859 59.7201V42.8001H99.6593C99.1259 42.8001 98.8593 42.3335 98.8593 41.4001C98.8593 40.4668 99.1259 40.0001 99.6593 40.0001H102.859V35.3201C102.859 34.7068 103.393 34.4001 104.459 34.4001C105.526 34.4001 106.059 34.7068 106.059 35.3201Z"/>
<path d="M134.37 45.7201V63.2801C134.37 63.8935 133.837 64.2001 132.77 64.2001C131.703 64.2001 131.17 63.8935 131.17 63.2801V45.3201C131.17 43.2401 129.343 42.2001 125.69 42.2001C122.063 42.2001 120.25 43.2401 120.25 45.3201V63.2801C120.25 63.8935 119.717 64.2001 118.65 64.2001C117.583 64.2001 117.05 63.8935 117.05 63.2801V32.9201C117.05 32.3068 117.583 32.0001 118.65 32.0001C119.717 32.0001 120.25 32.3068 120.25 32.9201V41.0401C121.717 39.9468 123.637 39.4001 126.01 39.4001C128.41 39.4001 130.397 39.9068 131.97 40.9201C133.57 41.9068 134.37 43.5068 134.37 45.7201Z"/>
<path d="M156.893 58.6801V45.3201C156.893 43.2401 155.067 42.2001 151.413 42.2001C147.787 42.2001 145.973 43.2401 145.973 45.3201V58.6801C145.973 60.7601 147.787 61.8001 151.413 61.8001C155.067 61.8001 156.893 60.7601 156.893 58.6801ZM160.093 45.7201V58.2801C160.093 60.4935 159.307 62.1068 157.733 63.1201C156.16 64.1068 154.067 64.6001 151.453 64.6001C148.84 64.6001 146.733 64.1068 145.133 63.1201C143.56 62.1068 142.773 60.4935 142.773 58.2801V45.7201C142.773 43.5068 143.56 41.9068 145.133 40.9201C146.707 39.9068 148.8 39.4001 151.413 39.4001C154.027 39.4001 156.12 39.9068 157.693 40.9201C159.293 41.9068 160.093 43.5068 160.093 45.7201Z"/>
<path d="M168.486 63.2801V45.7201C168.486 43.5335 169.246 41.9335 170.766 40.9201C172.313 39.9068 174.446 39.4001 177.166 39.4001C179.886 39.4001 181.966 40.1068 183.406 41.5201C184.819 40.1068 186.886 39.4001 189.606 39.4001C195.419 39.4001 198.326 41.5068 198.326 45.7201V63.2801C198.326 63.8935 197.793 64.2001 196.726 64.2001C195.659 64.2001 195.126 63.8935 195.126 63.2801V45.3201C195.126 43.2401 193.433 42.2001 190.046 42.2001C186.686 42.2001 185.006 43.2668 185.006 45.4001V63.2801C185.006 63.8935 184.473 64.2001 183.406 64.2001C182.339 64.2001 181.806 63.8935 181.806 63.2801V45.3201C181.806 43.2401 180.113 42.2001 176.726 42.2001C173.366 42.2001 171.686 43.2401 171.686 45.3201V63.2801C171.686 63.8935 171.153 64.2001 170.086 64.2001C169.019 64.2001 168.486 63.8935 168.486 63.2801Z"/>
<path d="M217.239 64.0001H212.559C210.212 64.0001 208.519 63.5201 207.479 62.5601C206.439 61.6001 205.919 59.9735 205.919 57.6801V57.3601C205.919 55.0935 206.385 53.5335 207.319 52.6801C208.252 51.8268 209.919 51.2801 212.319 51.0401L219.239 50.3601V45.9201C219.239 43.8401 217.425 42.8001 213.799 42.8001H208.319C207.785 42.8001 207.519 42.3335 207.519 41.4001C207.519 40.4668 207.785 40.0001 208.319 40.0001H213.799C216.412 40.0001 218.505 40.5068 220.079 41.5201C221.652 42.5068 222.439 44.1068 222.439 46.3201V58.1201C222.439 59.8535 222.745 61.2268 223.359 62.2401C223.545 62.5601 223.639 62.7601 223.639 62.8401C223.639 63.1601 223.385 63.5068 222.879 63.8801C222.372 64.2268 221.945 64.4001 221.599 64.4001C221.012 64.4001 220.465 63.8535 219.959 62.7601C219.479 61.6401 219.239 60.2268 219.239 58.5201V53.1601L212.559 53.8401C211.119 54.0001 210.185 54.3201 209.759 54.8001C209.332 55.2801 209.119 56.1335 209.119 57.3601V57.6801C209.119 58.9601 209.332 59.8668 209.759 60.4001C210.212 60.9335 211.145 61.2001 212.559 61.2001H217.239C217.772 61.2001 218.039 61.6668 218.039 62.6001C218.039 63.5335 217.772 64.0001 217.239 64.0001Z"/>
<path d="M244.62 46.9201V45.3601C244.62 43.2535 242.9 42.2001 239.46 42.2001C237.994 42.2001 236.794 42.4401 235.86 42.9201C234.927 43.4001 234.46 44.1601 234.46 45.2001V46.0801C234.46 47.5201 234.647 48.4668 235.02 48.9201C235.394 49.3468 236.194 49.7068 237.42 50.0001L240.9 50.8801C244.207 51.7335 246.167 52.5601 246.78 53.3601C247.527 54.3468 247.9 55.6535 247.9 57.2801V58.7201C247.9 60.8001 247.087 62.3068 245.46 63.2401C243.86 64.1468 241.78 64.6001 239.22 64.6001C235.06 64.6001 232.42 63.5468 231.3 61.4401C230.847 60.5601 230.62 59.4935 230.62 58.2401V56.9601C230.62 56.6135 230.74 56.3868 230.98 56.2801C231.22 56.1468 231.634 56.0801 232.22 56.0801C233.26 56.0801 233.78 56.4135 233.78 57.0801V58.8801C233.78 59.9468 234.247 60.7068 235.18 61.1601C236.114 61.5868 237.474 61.8001 239.26 61.8001C242.914 61.8001 244.74 60.8668 244.74 59.0001V56.8801C244.74 56.0535 244.42 55.4135 243.78 54.9601C243.167 54.5068 242.1 54.0801 240.58 53.6801L237.06 52.8001C234.687 52.2135 233.127 51.5201 232.38 50.7201C231.66 49.8935 231.3 48.3068 231.3 45.9601V45.4801C231.354 43.3468 232.114 41.8001 233.58 40.8401C235.047 39.8801 236.98 39.4001 239.38 39.4001C244.98 39.4001 247.78 41.4801 247.78 45.6401V47.0401C247.78 47.6001 247.247 47.8801 246.18 47.8801C245.14 47.8801 244.62 47.5601 244.62 46.9201Z"/>
</mask>
<path d="M33.5999 32.9201V59.3201C33.5999 60.1735 33.7999 60.9735 34.1999 61.7201C34.5999 62.4401 34.7999 62.8135 34.7999 62.8401C34.7999 63.1601 34.5466 63.5068 34.0399 63.8801C33.5332 64.2268 33.1066 64.4001 32.7599 64.4001C32.1999 64.4001 31.6666 63.9201 31.1599 62.9601C30.6532 61.9735 30.3999 60.8935 30.3999 59.7201V32.9201C30.3999 32.3068 30.9332 32.0001 31.9999 32.0001C33.0666 32.0001 33.5999 32.3068 33.5999 32.9201Z" fill="white" fill-opacity="0.2"/>
<path d="M59.5121 45.6401V46.8401C59.5121 49.1068 59.0454 50.6668 58.1121 51.5201C57.1788 52.3735 55.4721 52.9201 52.9921 53.1601L45.1921 53.9201V58.6801C45.1921 60.7601 46.9254 61.8001 50.3921 61.8001C54.3388 61.8001 56.3121 60.8935 56.3121 59.0801V57.5601C56.3121 56.9468 56.8454 56.6401 57.9121 56.6401C58.9788 56.6401 59.5121 56.9468 59.5121 57.5601V58.6801C59.5121 62.6268 56.5788 64.6001 50.7121 64.6001C48.1254 64.6001 46.0188 64.0935 44.3921 63.0801C42.7921 62.0668 41.9921 60.4668 41.9921 58.2801V45.7201C41.9921 43.5068 42.8454 41.9068 44.5521 40.9201C46.2588 39.9068 48.4854 39.4001 51.2321 39.4001C53.9788 39.4001 56.0454 39.8801 57.4321 40.8401C58.8188 41.8001 59.5121 43.4001 59.5121 45.6401ZM45.1921 45.3201V51.1201L52.7121 50.3601C54.2321 50.2001 55.2054 49.8801 55.6321 49.4001C56.0854 48.9201 56.3121 48.0668 56.3121 46.8401V45.3201C56.3121 43.2401 54.4588 42.2001 50.7521 42.2001C47.0454 42.2001 45.1921 43.2401 45.1921 45.3201Z" fill="white" fill-opacity="0.2"/>
<path d="M81.6199 58.6801V45.3201C81.6199 43.2401 79.7932 42.2001 76.1399 42.2001C72.5132 42.2001 70.6999 43.2401 70.6999 45.3201V58.6801C70.6999 60.7601 72.5132 61.8001 76.1399 61.8001C79.7932 61.8001 81.6199 60.7601 81.6199 58.6801ZM84.8199 45.7201V58.2801C84.8199 60.4935 84.0332 62.1068 82.4599 63.1201C80.8866 64.1068 78.7932 64.6001 76.1799 64.6001C73.5666 64.6001 71.4599 64.1068 69.8599 63.1201C68.2866 62.1068 67.4999 60.4935 67.4999 58.2801V45.7201C67.4999 43.5068 68.2866 41.9068 69.8599 40.9201C71.4332 39.9068 73.5266 39.4001 76.1399 39.4001C78.7532 39.4001 80.8466 39.9068 82.4199 40.9201C84.0199 41.9068 84.8199 43.5068 84.8199 45.7201Z" fill="white" fill-opacity="0.2"/>
<path d="M94.5324 60.2401V63.6401C94.5324 64.2801 93.9591 64.6001 92.8124 64.6001C91.6924 64.6001 91.1324 64.2801 91.1324 63.6401V60.2401C91.1324 59.6001 91.6924 59.2801 92.8124 59.2801C93.9591 59.2801 94.5324 59.6001 94.5324 60.2401Z" fill="white" fill-opacity="0.2"/>
<path d="M106.059 35.3201V40.0001H110.259C110.793 40.0001 111.059 40.4668 111.059 41.4001C111.059 42.3335 110.793 42.8001 110.259 42.8001H106.059V59.3201C106.059 60.1735 106.259 60.9735 106.659 61.7201C107.059 62.4401 107.259 62.8135 107.259 62.8401C107.259 63.1601 107.006 63.5068 106.499 63.8801C105.993 64.2268 105.566 64.4001 105.219 64.4001C104.659 64.4001 104.126 63.9201 103.619 62.9601C103.113 61.9735 102.859 60.8935 102.859 59.7201V42.8001H99.6593C99.1259 42.8001 98.8593 42.3335 98.8593 41.4001C98.8593 40.4668 99.1259 40.0001 99.6593 40.0001H102.859V35.3201C102.859 34.7068 103.393 34.4001 104.459 34.4001C105.526 34.4001 106.059 34.7068 106.059 35.3201Z" fill="white" fill-opacity="0.2"/>
<path d="M134.37 45.7201V63.2801C134.37 63.8935 133.837 64.2001 132.77 64.2001C131.703 64.2001 131.17 63.8935 131.17 63.2801V45.3201C131.17 43.2401 129.343 42.2001 125.69 42.2001C122.063 42.2001 120.25 43.2401 120.25 45.3201V63.2801C120.25 63.8935 119.717 64.2001 118.65 64.2001C117.583 64.2001 117.05 63.8935 117.05 63.2801V32.9201C117.05 32.3068 117.583 32.0001 118.65 32.0001C119.717 32.0001 120.25 32.3068 120.25 32.9201V41.0401C121.717 39.9468 123.637 39.4001 126.01 39.4001C128.41 39.4001 130.397 39.9068 131.97 40.9201C133.57 41.9068 134.37 43.5068 134.37 45.7201Z" fill="white" fill-opacity="0.2"/>
<path d="M156.893 58.6801V45.3201C156.893 43.2401 155.067 42.2001 151.413 42.2001C147.787 42.2001 145.973 43.2401 145.973 45.3201V58.6801C145.973 60.7601 147.787 61.8001 151.413 61.8001C155.067 61.8001 156.893 60.7601 156.893 58.6801ZM160.093 45.7201V58.2801C160.093 60.4935 159.307 62.1068 157.733 63.1201C156.16 64.1068 154.067 64.6001 151.453 64.6001C148.84 64.6001 146.733 64.1068 145.133 63.1201C143.56 62.1068 142.773 60.4935 142.773 58.2801V45.7201C142.773 43.5068 143.56 41.9068 145.133 40.9201C146.707 39.9068 148.8 39.4001 151.413 39.4001C154.027 39.4001 156.12 39.9068 157.693 40.9201C159.293 41.9068 160.093 43.5068 160.093 45.7201Z" fill="white" fill-opacity="0.2"/>
<path d="M168.486 63.2801V45.7201C168.486 43.5335 169.246 41.9335 170.766 40.9201C172.313 39.9068 174.446 39.4001 177.166 39.4001C179.886 39.4001 181.966 40.1068 183.406 41.5201C184.819 40.1068 186.886 39.4001 189.606 39.4001C195.419 39.4001 198.326 41.5068 198.326 45.7201V63.2801C198.326 63.8935 197.793 64.2001 196.726 64.2001C195.659 64.2001 195.126 63.8935 195.126 63.2801V45.3201C195.126 43.2401 193.433 42.2001 190.046 42.2001C186.686 42.2001 185.006 43.2668 185.006 45.4001V63.2801C185.006 63.8935 184.473 64.2001 183.406 64.2001C182.339 64.2001 181.806 63.8935 181.806 63.2801V45.3201C181.806 43.2401 180.113 42.2001 176.726 42.2001C173.366 42.2001 171.686 43.2401 171.686 45.3201V63.2801C171.686 63.8935 171.153 64.2001 170.086 64.2001C169.019 64.2001 168.486 63.8935 168.486 63.2801Z" fill="white" fill-opacity="0.2"/>
<path d="M217.239 64.0001H212.559C210.212 64.0001 208.519 63.5201 207.479 62.5601C206.439 61.6001 205.919 59.9735 205.919 57.6801V57.3601C205.919 55.0935 206.385 53.5335 207.319 52.6801C208.252 51.8268 209.919 51.2801 212.319 51.0401L219.239 50.3601V45.9201C219.239 43.8401 217.425 42.8001 213.799 42.8001H208.319C207.785 42.8001 207.519 42.3335 207.519 41.4001C207.519 40.4668 207.785 40.0001 208.319 40.0001H213.799C216.412 40.0001 218.505 40.5068 220.079 41.5201C221.652 42.5068 222.439 44.1068 222.439 46.3201V58.1201C222.439 59.8535 222.745 61.2268 223.359 62.2401C223.545 62.5601 223.639 62.7601 223.639 62.8401C223.639 63.1601 223.385 63.5068 222.879 63.8801C222.372 64.2268 221.945 64.4001 221.599 64.4001C221.012 64.4001 220.465 63.8535 219.959 62.7601C219.479 61.6401 219.239 60.2268 219.239 58.5201V53.1601L212.559 53.8401C211.119 54.0001 210.185 54.3201 209.759 54.8001C209.332 55.2801 209.119 56.1335 209.119 57.3601V57.6801C209.119 58.9601 209.332 59.8668 209.759 60.4001C210.212 60.9335 211.145 61.2001 212.559 61.2001H217.239C217.772 61.2001 218.039 61.6668 218.039 62.6001C218.039 63.5335 217.772 64.0001 217.239 64.0001Z" fill="white" fill-opacity="0.2"/>
<path d="M244.62 46.9201V45.3601C244.62 43.2535 242.9 42.2001 239.46 42.2001C237.994 42.2001 236.794 42.4401 235.86 42.9201C234.927 43.4001 234.46 44.1601 234.46 45.2001V46.0801C234.46 47.5201 234.647 48.4668 235.02 48.9201C235.394 49.3468 236.194 49.7068 237.42 50.0001L240.9 50.8801C244.207 51.7335 246.167 52.5601 246.78 53.3601C247.527 54.3468 247.9 55.6535 247.9 57.2801V58.7201C247.9 60.8001 247.087 62.3068 245.46 63.2401C243.86 64.1468 241.78 64.6001 239.22 64.6001C235.06 64.6001 232.42 63.5468 231.3 61.4401C230.847 60.5601 230.62 59.4935 230.62 58.2401V56.9601C230.62 56.6135 230.74 56.3868 230.98 56.2801C231.22 56.1468 231.634 56.0801 232.22 56.0801C233.26 56.0801 233.78 56.4135 233.78 57.0801V58.8801C233.78 59.9468 234.247 60.7068 235.18 61.1601C236.114 61.5868 237.474 61.8001 239.26 61.8001C242.914 61.8001 244.74 60.8668 244.74 59.0001V56.8801C244.74 56.0535 244.42 55.4135 243.78 54.9601C243.167 54.5068 242.1 54.0801 240.58 53.6801L237.06 52.8001C234.687 52.2135 233.127 51.5201 232.38 50.7201C231.66 49.8935 231.3 48.3068 231.3 45.9601V45.4801C231.354 43.3468 232.114 41.8001 233.58 40.8401C235.047 39.8801 236.98 39.4001 239.38 39.4001C244.98 39.4001 247.78 41.4801 247.78 45.6401V47.0401C247.78 47.6001 247.247 47.8801 246.18 47.8801C245.14 47.8801 244.62 47.5601 244.62 46.9201Z" fill="white" fill-opacity="0.2"/>
<path d="M33.5999 32.9201V59.3201C33.5999 60.1735 33.7999 60.9735 34.1999 61.7201C34.5999 62.4401 34.7999 62.8135 34.7999 62.8401C34.7999 63.1601 34.5466 63.5068 34.0399 63.8801C33.5332 64.2268 33.1066 64.4001 32.7599 64.4001C32.1999 64.4001 31.6666 63.9201 31.1599 62.9601C30.6532 61.9735 30.3999 60.8935 30.3999 59.7201V32.9201C30.3999 32.3068 30.9332 32.0001 31.9999 32.0001C33.0666 32.0001 33.5999 32.3068 33.5999 32.9201Z" stroke="white" stroke-width="2" mask="url(#path-4-outside-1_22_10)"/>
<path d="M59.5121 45.6401V46.8401C59.5121 49.1068 59.0454 50.6668 58.1121 51.5201C57.1788 52.3735 55.4721 52.9201 52.9921 53.1601L45.1921 53.9201V58.6801C45.1921 60.7601 46.9254 61.8001 50.3921 61.8001C54.3388 61.8001 56.3121 60.8935 56.3121 59.0801V57.5601C56.3121 56.9468 56.8454 56.6401 57.9121 56.6401C58.9788 56.6401 59.5121 56.9468 59.5121 57.5601V58.6801C59.5121 62.6268 56.5788 64.6001 50.7121 64.6001C48.1254 64.6001 46.0188 64.0935 44.3921 63.0801C42.7921 62.0668 41.9921 60.4668 41.9921 58.2801V45.7201C41.9921 43.5068 42.8454 41.9068 44.5521 40.9201C46.2588 39.9068 48.4854 39.4001 51.2321 39.4001C53.9788 39.4001 56.0454 39.8801 57.4321 40.8401C58.8188 41.8001 59.5121 43.4001 59.5121 45.6401ZM45.1921 45.3201V51.1201L52.7121 50.3601C54.2321 50.2001 55.2054 49.8801 55.6321 49.4001C56.0854 48.9201 56.3121 48.0668 56.3121 46.8401V45.3201C56.3121 43.2401 54.4588 42.2001 50.7521 42.2001C47.0454 42.2001 45.1921 43.2401 45.1921 45.3201Z" stroke="white" stroke-width="2" mask="url(#path-4-outside-1_22_10)"/>
<path d="M81.6199 58.6801V45.3201C81.6199 43.2401 79.7932 42.2001 76.1399 42.2001C72.5132 42.2001 70.6999 43.2401 70.6999 45.3201V58.6801C70.6999 60.7601 72.5132 61.8001 76.1399 61.8001C79.7932 61.8001 81.6199 60.7601 81.6199 58.6801ZM84.8199 45.7201V58.2801C84.8199 60.4935 84.0332 62.1068 82.4599 63.1201C80.8866 64.1068 78.7932 64.6001 76.1799 64.6001C73.5666 64.6001 71.4599 64.1068 69.8599 63.1201C68.2866 62.1068 67.4999 60.4935 67.4999 58.2801V45.7201C67.4999 43.5068 68.2866 41.9068 69.8599 40.9201C71.4332 39.9068 73.5266 39.4001 76.1399 39.4001C78.7532 39.4001 80.8466 39.9068 82.4199 40.9201C84.0199 41.9068 84.8199 43.5068 84.8199 45.7201Z" stroke="white" stroke-width="2" mask="url(#path-4-outside-1_22_10)"/>
<path d="M94.5324 60.2401V63.6401C94.5324 64.2801 93.9591 64.6001 92.8124 64.6001C91.6924 64.6001 91.1324 64.2801 91.1324 63.6401V60.2401C91.1324 59.6001 91.6924 59.2801 92.8124 59.2801C93.9591 59.2801 94.5324 59.6001 94.5324 60.2401Z" stroke="white" stroke-width="2" mask="url(#path-4-outside-1_22_10)"/>
<path d="M106.059 35.3201V40.0001H110.259C110.793 40.0001 111.059 40.4668 111.059 41.4001C111.059 42.3335 110.793 42.8001 110.259 42.8001H106.059V59.3201C106.059 60.1735 106.259 60.9735 106.659 61.7201C107.059 62.4401 107.259 62.8135 107.259 62.8401C107.259 63.1601 107.006 63.5068 106.499 63.8801C105.993 64.2268 105.566 64.4001 105.219 64.4001C104.659 64.4001 104.126 63.9201 103.619 62.9601C103.113 61.9735 102.859 60.8935 102.859 59.7201V42.8001H99.6593C99.1259 42.8001 98.8593 42.3335 98.8593 41.4001C98.8593 40.4668 99.1259 40.0001 99.6593 40.0001H102.859V35.3201C102.859 34.7068 103.393 34.4001 104.459 34.4001C105.526 34.4001 106.059 34.7068 106.059 35.3201Z" stroke="white" stroke-width="2" mask="url(#path-4-outside-1_22_10)"/>
<path d="M134.37 45.7201V63.2801C134.37 63.8935 133.837 64.2001 132.77 64.2001C131.703 64.2001 131.17 63.8935 131.17 63.2801V45.3201C131.17 43.2401 129.343 42.2001 125.69 42.2001C122.063 42.2001 120.25 43.2401 120.25 45.3201V63.2801C120.25 63.8935 119.717 64.2001 118.65 64.2001C117.583 64.2001 117.05 63.8935 117.05 63.2801V32.9201C117.05 32.3068 117.583 32.0001 118.65 32.0001C119.717 32.0001 120.25 32.3068 120.25 32.9201V41.0401C121.717 39.9468 123.637 39.4001 126.01 39.4001C128.41 39.4001 130.397 39.9068 131.97 40.9201C133.57 41.9068 134.37 43.5068 134.37 45.7201Z" stroke="white" stroke-width="2" mask="url(#path-4-outside-1_22_10)"/>
<path d="M156.893 58.6801V45.3201C156.893 43.2401 155.067 42.2001 151.413 42.2001C147.787 42.2001 145.973 43.2401 145.973 45.3201V58.6801C145.973 60.7601 147.787 61.8001 151.413 61.8001C155.067 61.8001 156.893 60.7601 156.893 58.6801ZM160.093 45.7201V58.2801C160.093 60.4935 159.307 62.1068 157.733 63.1201C156.16 64.1068 154.067 64.6001 151.453 64.6001C148.84 64.6001 146.733 64.1068 145.133 63.1201C143.56 62.1068 142.773 60.4935 142.773 58.2801V45.7201C142.773 43.5068 143.56 41.9068 145.133 40.9201C146.707 39.9068 148.8 39.4001 151.413 39.4001C154.027 39.4001 156.12 39.9068 157.693 40.9201C159.293 41.9068 160.093 43.5068 160.093 45.7201Z" stroke="white" stroke-width="2" mask="url(#path-4-outside-1_22_10)"/>
<path d="M168.486 63.2801V45.7201C168.486 43.5335 169.246 41.9335 170.766 40.9201C172.313 39.9068 174.446 39.4001 177.166 39.4001C179.886 39.4001 181.966 40.1068 183.406 41.5201C184.819 40.1068 186.886 39.4001 189.606 39.4001C195.419 39.4001 198.326 41.5068 198.326 45.7201V63.2801C198.326 63.8935 197.793 64.2001 196.726 64.2001C195.659 64.2001 195.126 63.8935 195.126 63.2801V45.3201C195.126 43.2401 193.433 42.2001 190.046 42.2001C186.686 42.2001 185.006 43.2668 185.006 45.4001V63.2801C185.006 63.8935 184.473 64.2001 183.406 64.2001C182.339 64.2001 181.806 63.8935 181.806 63.2801V45.3201C181.806 43.2401 180.113 42.2001 176.726 42.2001C173.366 42.2001 171.686 43.2401 171.686 45.3201V63.2801C171.686 63.8935 171.153 64.2001 170.086 64.2001C169.019 64.2001 168.486 63.8935 168.486 63.2801Z" stroke="white" stroke-width="2" mask="url(#path-4-outside-1_22_10)"/>
<path d="M217.239 64.0001H212.559C210.212 64.0001 208.519 63.5201 207.479 62.5601C206.439 61.6001 205.919 59.9735 205.919 57.6801V57.3601C205.919 55.0935 206.385 53.5335 207.319 52.6801C208.252 51.8268 209.919 51.2801 212.319 51.0401L219.239 50.3601V45.9201C219.239 43.8401 217.425 42.8001 213.799 42.8001H208.319C207.785 42.8001 207.519 42.3335 207.519 41.4001C207.519 40.4668 207.785 40.0001 208.319 40.0001H213.799C216.412 40.0001 218.505 40.5068 220.079 41.5201C221.652 42.5068 222.439 44.1068 222.439 46.3201V58.1201C222.439 59.8535 222.745 61.2268 223.359 62.2401C223.545 62.5601 223.639 62.7601 223.639 62.8401C223.639 63.1601 223.385 63.5068 222.879 63.8801C222.372 64.2268 221.945 64.4001 221.599 64.4001C221.012 64.4001 220.465 63.8535 219.959 62.7601C219.479 61.6401 219.239 60.2268 219.239 58.5201V53.1601L212.559 53.8401C211.119 54.0001 210.185 54.3201 209.759 54.8001C209.332 55.2801 209.119 56.1335 209.119 57.3601V57.6801C209.119 58.9601 209.332 59.8668 209.759 60.4001C210.212 60.9335 211.145 61.2001 212.559 61.2001H217.239C217.772 61.2001 218.039 61.6668 218.039 62.6001C218.039 63.5335 217.772 64.0001 217.239 64.0001Z" stroke="white" stroke-width="2" mask="url(#path-4-outside-1_22_10)"/>
<path d="M244.62 46.9201V45.3601C244.62 43.2535 242.9 42.2001 239.46 42.2001C237.994 42.2001 236.794 42.4401 235.86 42.9201C234.927 43.4001 234.46 44.1601 234.46 45.2001V46.0801C234.46 47.5201 234.647 48.4668 235.02 48.9201C235.394 49.3468 236.194 49.7068 237.42 50.0001L240.9 50.8801C244.207 51.7335 246.167 52.5601 246.78 53.3601C247.527 54.3468 247.9 55.6535 247.9 57.2801V58.7201C247.9 60.8001 247.087 62.3068 245.46 63.2401C243.86 64.1468 241.78 64.6001 239.22 64.6001C235.06 64.6001 232.42 63.5468 231.3 61.4401C230.847 60.5601 230.62 59.4935 230.62 58.2401V56.9601C230.62 56.6135 230.74 56.3868 230.98 56.2801C231.22 56.1468 231.634 56.0801 232.22 56.0801C233.26 56.0801 233.78 56.4135 233.78 57.0801V58.8801C233.78 59.9468 234.247 60.7068 235.18 61.1601C236.114 61.5868 237.474 61.8001 239.26 61.8001C242.914 61.8001 244.74 60.8668 244.74 59.0001V56.8801C244.74 56.0535 244.42 55.4135 243.78 54.9601C243.167 54.5068 242.1 54.0801 240.58 53.6801L237.06 52.8001C234.687 52.2135 233.127 51.5201 232.38 50.7201C231.66 49.8935 231.3 48.3068 231.3 45.9601V45.4801C231.354 43.3468 232.114 41.8001 233.58 40.8401C235.047 39.8801 236.98 39.4001 239.38 39.4001C244.98 39.4001 247.78 41.4801 247.78 45.6401V47.0401C247.78 47.6001 247.247 47.8801 246.18 47.8801C245.14 47.8801 244.62 47.5601 244.62 46.9201Z" stroke="white" stroke-width="2" mask="url(#path-4-outside-1_22_10)"/>
<line x1="1.5" y1="48.0104" x2="1.5" y2="-7.62939e-06" stroke="white" stroke-width="2"/>
<defs>
<filter id="filter0_b_22_10" x="0" y="0.00012207" width="80" height="97.1429" filterUnits="userSpaceOnUse" color-interpolation-filters="sRGB">
<feFlood flood-opacity="0" result="BackgroundImageFix"/>
<feGaussianBlur in="BackgroundImageFix" stdDeviation="5"/>
<feComposite in2="SourceAlpha" operator="in" result="effect1_backgroundBlur_22_10"/>
<feBlend mode="normal" in="SourceGraphic" in2="effect1_backgroundBlur_22_10" result="shape"/>
</filter>
</defs>
</svg>
