<?xml version="1.0" standalone="no"?>
<!DOCTYPE svg PUBLIC "-//W3C//DTD SVG 20010904//EN"
 "http://www.w3.org/TR/2001/REC-SVG-20010904/DTD/svg10.dtd">
<svg version="1.0" xmlns="http://www.w3.org/2000/svg"
 width="500.000000pt" height="500.000000pt" viewBox="0 0 500.000000 500.000000"
 preserveAspectRatio="xMidYMid meet">
<metadata>
Created by potrace 1.14, written by Peter Selinger 2001-2017
</metadata>
<g transform="translate(0.000000,500.000000) scale(0.100000,-0.100000)"
fill="#000000" stroke="none">
<path d="M710 4558 c0 -239 3 -327 12 -336 9 -9 9 -12 0 -12 -9 0 -12 -88 -12
-364 l0 -364 541 -356 c297 -196 544 -356 549 -356 4 0 10 -4 12 -8 2 -5 87
-64 191 -131 103 -68 187 -127 187 -131 0 -4 -75 -57 -167 -118 -93 -60 -256
-167 -363 -237 -107 -70 -201 -135 -208 -144 -7 -9 -16 -15 -20 -14 -4 2 -88
-51 -187 -116 -99 -65 -260 -170 -357 -234 l-178 -116 1 -344 0 -344 24 5 c15
2 25 0 25 -7 0 -6 -11 -11 -25 -11 l-25 0 0 -229 c0 -174 3 -231 13 -234 9 -4
9 -7 -1 -15 -9 -6 -12 -37 -10 -116 l3 -107 140 92 c77 50 142 94 145 98 3 3
17 12 32 20 15 8 25 18 22 23 -3 5 -2 8 3 7 17 -3 30 2 49 18 11 10 33 26 49
35 17 10 29 22 28 27 -3 12 26 29 66 41 14 4 166 99 336 212 171 112 394 259
498 327 170 112 206 141 177 141 -5 0 -10 11 -10 25 0 16 -6 25 -16 25 -19 0
-13 24 7 27 8 2 21 -2 29 -7 12 -8 12 -12 2 -18 -10 -7 -9 -13 5 -31 l19 -23
239 158 c132 86 242 161 243 166 2 4 7 8 12 8 12 0 164 101 168 112 2 4 9 8
15 8 17 0 154 93 156 105 1 6 7 10 14 10 19 0 378 236 384 252 3 7 14 13 25
13 19 0 19 1 -1 27 -27 33 -18 43 12 14 l24 -22 56 37 c32 20 57 43 57 50 0 8
5 14 10 14 6 0 10 11 10 25 0 16 6 25 15 25 8 0 15 -9 15 -20 0 -11 2 -20 5
-20 15 0 105 67 105 78 0 8 6 12 13 9 16 -5 249 151 242 163 -4 6 1 10 9 10 8
0 20 8 26 18 8 12 13 13 16 5 8 -18 93 42 105 74 6 17 5 33 -3 51 -16 31 -734
506 -750 496 -6 -4 -8 -3 -5 3 8 13 -1369 919 -1390 915 -8 -2 -12 1 -9 6 5 9
-563 390 -588 395 -6 1 -15 7 -21 13 -5 7 -62 46 -125 88 -84 56 -116 72 -118
61 -2 -8 -10 -15 -19 -15 -11 0 -14 6 -9 23 5 22 -17 38 -247 189 -138 91
-258 168 -264 172 -10 6 -13 -60 -13 -316z m960 -328 c0 -5 -4 -10 -10 -10 -5
0 -10 5 -10 10 0 6 5 10 10 10 6 0 10 -4 10 -10z m-790 -64 c0 -16 -18 -31
-27 -22 -8 8 5 36 17 36 5 0 10 -6 10 -14z m375 -65 c-3 -6 -11 -11 -17 -11
-6 0 -6 6 2 15 14 17 26 13 15 -4z m-185 -31 c0 -5 -5 -10 -11 -10 -5 0 -7 5
-4 10 3 6 8 10 11 10 2 0 4 -4 4 -10z m707 -22 c-3 -7 -5 -2 -5 12 0 14 2 19
5 13 2 -7 2 -19 0 -25z m-522 -88 c-3 -5 -11 -10 -16 -10 -6 0 -7 5 -4 10 3 6
11 10 16 10 6 0 7 -4 4 -10z m162 -6 c8 -22 -15 -43 -27 -24 -5 8 -10 21 -10
28 0 17 30 15 37 -4z m-67 2 c0 -3 -4 -8 -10 -11 -5 -3 -10 -1 -10 4 0 6 5 11
10 11 6 0 10 -2 10 -4z m456 -11 c16 -12 17 -14 2 -15 -25 0 -49 11 -42 21 7
13 17 11 40 -6z m-546 -39 c0 -3 -4 -8 -10 -11 -5 -3 -10 -1 -10 4 0 6 5 11
10 11 6 0 10 -2 10 -4z m-78 -38 c-7 -7 -12 -8 -12 -2 0 14 12 26 19 19 2 -3
-1 -11 -7 -17z m-325 -33 c3 -9 3 -18 0 -21 -9 -9 -48 16 -42 27 9 14 35 11
42 -6z m283 -16 c0 -4 -7 -6 -15 -3 -8 4 -15 10 -15 15 0 4 7 6 15 3 8 -4 15
-10 15 -15z m127 -15 c-3 -3 -12 -4 -19 -1 -8 3 -5 6 6 6 11 1 17 -2 13 -5z
m833 -35 c0 -6 -4 -7 -10 -4 -5 3 -10 11 -10 16 0 6 5 7 10 4 6 -3 10 -11 10
-16z m-215 -89 c3 -5 1 -10 -4 -10 -6 0 -11 5 -11 10 0 6 2 10 4 10 3 0 8 -4
11 -10z m-112 -57 c-7 -2 -21 -2 -30 0 -10 3 -4 5 12 5 17 0 24 -2 18 -5z
m-293 -17 c0 -3 -4 -8 -10 -11 -5 -3 -10 -1 -10 4 0 6 5 11 10 11 6 0 10 -2
10 -4z m105 -106 c-5 -8 -11 -8 -17 -2 -6 6 -7 16 -3 22 5 8 11 8 17 2 6 -6 7
-16 3 -22z m-605 -10 c0 -5 -4 -10 -10 -10 -5 0 -10 5 -10 10 0 6 5 10 10 10
6 0 10 -4 10 -10z m620 -64 c0 -3 -4 -8 -10 -11 -5 -3 -10 -1 -10 4 0 6 5 11
10 11 6 0 10 -2 10 -4z m90 -26 c0 -5 -2 -10 -4 -10 -3 0 -8 5 -11 10 -3 6 -1
10 4 10 6 0 11 -4 11 -10z m760 0 c0 -5 -4 -10 -9 -10 -6 0 -13 5 -16 10 -3 6
1 10 9 10 9 0 16 -4 16 -10z m-1416 -51 c-3 -5 -10 -7 -15 -3 -5 3 -7 10 -3
15 3 5 10 7 15 3 5 -3 7 -10 3 -15z m476 -179 c0 -5 -4 -10 -10 -10 -5 0 -10
5 -10 10 0 6 5 10 10 10 6 0 10 -4 10 -10z m1060 -40 c0 -5 -7 -10 -15 -10 -8
0 -15 5 -15 10 0 6 7 10 15 10 8 0 15 -4 15 -10z m545 -59 c-3 -6 -11 -11 -17
-11 -6 0 -6 6 2 15 14 17 26 13 15 -4z m-768 -76 c-4 -8 -11 -15 -17 -15 -6 0
-6 7 2 20 14 22 24 19 15 -5z m73 -4 c0 -6 -4 -13 -10 -16 -5 -3 -10 1 -10 9
0 9 5 16 10 16 6 0 10 -4 10 -9z m188 -64 c9 -11 5 -18 -19 -36 -23 -17 -34
-20 -42 -12 -8 8 -5 11 11 11 25 0 26 7 12 45 -9 23 -8 25 8 16 10 -6 24 -16
30 -24z m-300 11 c-6 -16 -36 -34 -44 -26 -3 4 -4 14 -1 23 7 17 51 21 45 3z
m822 -28 c0 -5 -4 -10 -10 -10 -5 0 -10 5 -10 10 0 6 5 10 10 10 6 0 10 -4 10
-10z m520 -24 c0 -14 -5 -28 -10 -31 -6 -4 -10 5 -8 24 3 37 18 42 18 7z
m-806 -11 c-7 -17 -20 -20 -28 -6 -7 10 3 21 20 21 8 0 11 -6 8 -15z m761 -86
c10 -15 -1 -23 -20 -15 -9 3 -13 10 -10 16 8 13 22 13 30 -1z m185 -29 c0 -5
-4 -10 -10 -10 -5 0 -10 5 -10 10 0 6 5 10 10 10 6 0 10 -4 10 -10z m-957 -26
c8 -8 -3 -34 -14 -34 -5 0 -9 9 -9 20 0 19 11 26 23 14z m757 0 c0 -7 -27 -34
-34 -34 -4 0 -1 9 6 20 12 19 28 27 28 14z m139 -33 c7 -5 10 -14 7 -20 -8
-13 -46 3 -46 19 0 12 20 13 39 1z m-639 -10 c0 -12 -20 -25 -27 -18 -7 7 6
27 18 27 5 0 9 -4 9 -9z m-79 -38 c-8 -15 -10 -15 -11 -2 0 17 10 32 18 25 2
-3 -1 -13 -7 -23z m245 0 c-10 -10 -19 5 -10 18 6 11 8 11 12 0 2 -7 1 -15 -2
-18z m254 12 c0 -8 -4 -15 -10 -15 -5 0 -10 7 -10 15 0 8 5 15 10 15 6 0 10
-7 10 -15z m-990 -48 c-27 -15 -36 -14 -25 2 3 6 16 11 28 11 21 0 21 -1 -3
-13z m1600 -7 c12 -8 9 -10 -12 -10 -16 0 -28 5 -28 10 0 13 20 13 40 0z
m-140 -4 c0 -2 -7 -6 -15 -10 -8 -3 -15 -1 -15 4 0 6 7 10 15 10 8 0 15 -2 15
-4z m-1140 -16 c0 -5 -4 -10 -10 -10 -5 0 -10 5 -10 10 0 6 5 10 10 10 6 0 10
-4 10 -10z m740 -19 c0 -6 -4 -13 -10 -16 -5 -3 -10 1 -10 9 0 9 5 16 10 16 6
0 10 -4 10 -9z m70 0 c0 -12 -20 -25 -27 -18 -7 7 6 27 18 27 5 0 9 -4 9 -9z
m503 -12 c3 -13 1 -19 -6 -16 -15 5 -22 37 -9 37 5 0 12 -9 15 -21z m-1273 1
c0 -5 -2 -10 -4 -10 -3 0 -8 5 -11 10 -3 6 -1 10 4 10 6 0 11 -4 11 -10z m877
-27 c4 -10 11 -21 17 -25 6 -4 7 -10 3 -15 -8 -7 -46 34 -47 50 0 14 21 7 27
-10z m368 -51 c-13 -13 -26 17 -19 44 l8 29 8 -34 c5 -18 7 -36 3 -39z m-325
48 c0 -5 -4 -10 -10 -10 -5 0 -10 5 -10 10 0 6 5 10 10 10 6 0 10 -4 10 -10z
m135 0 c3 -5 1 -10 -4 -10 -6 0 -11 5 -11 10 0 6 2 10 4 10 3 0 8 -4 11 -10z
m319 -11 c-3 -5 -10 -7 -15 -3 -5 3 -7 10 -3 15 3 5 10 7 15 3 5 -3 7 -10 3
-15z m-664 -19 c0 -5 -4 -10 -9 -10 -6 0 -13 5 -16 10 -3 6 1 10 9 10 9 0 16
-4 16 -10z m137 -22 c-3 -7 -5 -2 -5 12 0 14 2 19 5 13 2 -7 2 -19 0 -25z
m260 7 c-4 -8 -11 -15 -17 -15 -7 0 -7 6 0 21 13 23 26 19 17 -6z m223 -5 c0
-5 -5 -10 -11 -10 -5 0 -7 5 -4 10 3 6 8 10 11 10 2 0 4 -4 4 -10z m-1419 -43
c-13 -13 -15 1 -4 30 7 17 8 17 11 -1 2 -10 -1 -23 -7 -29z m459 11 c0 -16 -3
-19 -11 -11 -6 6 -8 16 -5 22 11 17 16 13 16 -11z m-160 -3 c0 -2 -19 -14 -41
-26 -30 -15 -44 -18 -52 -10 -15 15 1 28 38 34 51 7 55 7 55 2z m787 -21 c-9
-9 -28 6 -21 18 4 6 10 6 17 -1 6 -6 8 -13 4 -17z m-1747 -3 c0 -15 -28 -33
-40 -26 -8 5 -8 11 1 21 13 15 39 19 39 5z m515 -1 c-3 -5 -10 -10 -16 -10 -5
0 -9 5 -9 10 0 6 7 10 16 10 8 0 12 -4 9 -10z m970 -29 c-9 -40 -45 -45 -37
-5 3 16 7 21 12 14 5 -8 9 -4 13 11 9 34 20 15 12 -20z m165 19 c-6 -11 -20
-20 -30 -20 -27 0 -25 14 3 28 33 16 39 14 27 -8z m-1510 -5 c0 -8 -7 -15 -15
-15 -8 0 -15 7 -15 15 0 8 7 15 15 15 8 0 15 -7 15 -15z m620 -1 c0 -8 -4 -12
-10 -9 -5 3 -10 10 -10 16 0 5 5 9 10 9 6 0 10 -7 10 -16z m-303 -14 c-1 -11
-5 -20 -9 -20 -12 0 -10 -34 3 -47 15 -15 4 -43 -16 -43 -18 0 -18 1 -4 73 11
54 29 80 26 37z m1401 8 c-6 -18 -28 -21 -28 -4 0 9 7 16 16 16 9 0 14 -5 12
-12z m-123 -28 c-3 -5 -15 -10 -26 -10 -10 0 -19 5 -19 10 0 6 12 10 26 10 14
0 23 -4 19 -10z m-1065 -16 c0 -9 -5 -14 -12 -12 -18 6 -21 28 -4 28 9 0 16
-7 16 -16z m860 -14 c0 -4 -7 -10 -15 -14 -11 -4 -15 2 -15 21 0 21 2 24 15
13 8 -7 15 -16 15 -20z m-170 1 c0 -6 -4 -13 -10 -16 -5 -3 -10 1 -10 9 0 9 5
16 10 16 6 0 10 -4 10 -9z m413 -4 c3 -8 2 -19 -3 -26 -5 -9 -9 -4 -12 13 -5
27 6 36 15 13z m-1383 -7 c0 -5 -2 -10 -4 -10 -3 0 -8 5 -11 10 -3 6 -1 10 4
10 6 0 11 -4 11 -10z m570 6 c0 -3 -4 -8 -10 -11 -5 -3 -10 -1 -10 4 0 6 5 11
10 11 6 0 10 -2 10 -4z m170 0 c0 -3 -4 -8 -10 -11 -5 -3 -10 -1 -10 4 0 6 5
11 10 11 6 0 10 -2 10 -4z m330 -10 c0 -22 -19 -29 -36 -15 -12 10 -12 14 -2
20 20 13 38 10 38 -5z m266 3 c10 -17 -13 -36 -27 -22 -12 12 -4 33 11 33 5 0
12 -5 16 -11z m-936 -9 c0 -5 -4 -10 -10 -10 -5 0 -10 5 -10 10 0 6 5 10 10
10 6 0 10 -4 10 -10z m366 -35 c-4 -14 0 -28 9 -35 21 -17 19 -30 -4 -30 -26
0 -49 64 -31 85 17 20 33 8 26 -20z m152 -4 c3 -8 -1 -12 -9 -9 -7 2 -15 10
-17 17 -3 8 1 12 9 9 7 -2 15 -10 17 -17z m202 9 c0 -15 -38 -32 -45 -20 -3 5
-3 15 0 20 8 13 45 13 45 0z m-140 -14 c0 -18 -16 -29 -30 -21 -13 8 -1 35 16
35 8 0 14 -6 14 -14z m300 -23 c0 -18 -25 -16 -40 2 -11 13 -8 15 14 13 14 -1
26 -8 26 -15z m-760 -13 c0 -5 -4 -10 -10 -10 -5 0 -10 5 -10 10 0 6 5 10 10
10 6 0 10 -4 10 -10z m-183 -16 c9 -25 -13 -40 -26 -16 -10 19 -6 32 11 32 5
0 11 -7 15 -16z m543 1 c0 -8 4 -15 9 -15 5 0 11 7 15 15 3 8 13 15 22 15 11
0 14 -5 10 -16 -4 -9 -1 -23 5 -30 16 -19 2 -35 -25 -28 -27 6 -47 -14 -44
-46 2 -13 -3 -25 -11 -28 -13 -4 -13 14 1 93 2 15 -2 20 -19 19 -26 -1 -29 6
-11 24 17 17 48 15 48 -3z m160 -22 c0 -7 -9 -13 -20 -13 -23 0 -24 4 -9 32 9
17 13 18 20 7 5 -8 9 -20 9 -26z m-1655 -33 c-3 -5 -11 -10 -16 -10 -6 0 -7 5
-4 10 3 6 11 10 16 10 6 0 7 -4 4 -10z m1709 -13 c3 -13 17 -29 31 -35 15 -7
23 -17 20 -22 -8 -13 -35 -13 -35 0 0 13 -61 1 -82 -17 -22 -20 -52 -13 -56
13 -3 18 1 21 24 16 25 -4 26 -3 19 27 -6 30 6 43 20 21 4 -6 12 -4 21 5 21
21 31 19 38 -8z m56 9 c0 -3 -4 -8 -10 -11 -5 -3 -10 -1 -10 4 0 6 5 11 10 11
6 0 10 -2 10 -4z m-1290 -60 c0 -11 -19 -15 -25 -6 -3 5 1 10 9 10 9 0 16 -2
16 -4z m880 -12 c0 -8 -5 -12 -10 -9 -6 4 -8 11 -5 16 9 14 15 11 15 -7z m216
-6 c3 -4 0 -16 -6 -28 -9 -16 -9 -25 -1 -33 12 -12 15 -70 5 -80 -4 -3 -16 -1
-27 5 -17 9 -19 8 -14 -6 4 -9 2 -16 -3 -16 -6 0 -10 4 -10 9 0 5 -10 12 -22
16 -24 7 -21 9 25 19 35 8 35 24 0 28 -14 2 -28 9 -31 16 -3 9 3 11 22 6 20
-5 26 -2 26 10 0 9 -7 16 -15 16 -15 0 -21 31 -9 43 7 7 52 3 60 -5z m-476
-28 c-8 -5 -22 -10 -30 -10 -13 0 -13 1 0 10 8 5 22 10 30 10 13 0 13 -1 0
-10z m104 -6 c9 -24 7 -27 -9 -10 -17 17 -19 26 -6 26 5 0 12 -7 15 -16z
m-1484 -24 c0 -5 -4 -10 -10 -10 -5 0 -10 5 -10 10 0 6 5 10 10 10 6 0 10 -4
10 -10z m1650 -40 c0 -22 -7 -25 -29 -11 -16 10 -6 31 15 31 8 0 14 -9 14 -20z
m-650 -20 c0 -5 -4 -10 -10 -10 -5 0 -10 5 -10 10 0 6 5 10 10 10 6 0 10 -4
10 -10z m370 1 c0 -12 -20 -25 -27 -18 -7 7 6 27 18 27 5 0 9 -4 9 -9z m-1000
-15 c0 -3 -4 -8 -10 -11 -5 -3 -10 -1 -10 4 0 6 5 11 10 11 6 0 10 -2 10 -4z
m1114 -32 c3 -8 2 -12 -4 -9 -6 3 -10 10 -10 16 0 14 7 11 14 -7z m-1464 -13
c0 -11 4 -22 8 -25 5 -3 7 -19 4 -36 -4 -28 -5 -29 -17 -13 -14 20 -16 93 -3
93 4 0 8 -9 8 -19z m734 -13 c8 -51 4 -70 -11 -63 -8 3 -19 5 -24 5 -5 0 -2
14 6 31 13 24 14 34 4 45 -9 11 -8 14 4 14 10 0 18 -12 21 -32z m-484 12 c0
-5 -4 -10 -10 -10 -5 0 -10 5 -10 10 0 6 5 10 10 10 6 0 10 -4 10 -10z m965 0
c3 -5 1 -10 -4 -10 -6 0 -11 5 -11 10 0 6 2 10 4 10 3 0 8 -4 11 -10z m-245
-10 c0 -5 -4 -10 -10 -10 -5 0 -10 5 -10 10 0 6 5 10 10 10 6 0 10 -4 10 -10z
m-405 -40 c3 -5 1 -10 -4 -10 -6 0 -11 5 -11 10 0 6 2 10 4 10 3 0 8 -4 11
-10z m55 -21 c0 -5 -4 -9 -10 -9 -5 0 -10 7 -10 16 0 8 5 12 10 9 6 -3 10 -10
10 -16z m700 -21 c0 -11 -8 -18 -20 -18 -13 0 -18 5 -15 15 16 51 16 50 25 35
6 -8 10 -23 10 -32z m140 21 c0 -5 -4 -9 -10 -9 -5 0 -10 7 -10 16 0 8 5 12
10 9 6 -3 10 -10 10 -16z m-408 -19 c-20 -24 -32 -26 -32 -5 0 15 30 36 42 29
4 -3 0 -14 -10 -24z m548 15 c0 -8 -9 -15 -20 -15 -11 0 -20 7 -20 15 0 8 9
15 20 15 11 0 20 -7 20 -15z m-615 -45 c3 -5 1 -10 -4 -10 -6 0 -11 5 -11 10
0 6 2 10 4 10 3 0 8 -4 11 -10z m-1425 -8 c0 -5 -9 -17 -20 -27 -16 -14 -20
-15 -20 -4 0 16 19 39 32 39 4 0 8 -4 8 -8z m1280 4 c0 -3 -4 -8 -10 -11 -5
-3 -10 -1 -10 4 0 6 5 11 10 11 6 0 10 -2 10 -4z m620 -21 c10 -12 10 -19 2
-27 -15 -15 -48 14 -38 31 10 15 21 14 36 -4z m-420 -20 c0 -8 -4 -15 -10 -15
-5 0 -7 7 -4 15 4 8 8 15 10 15 2 0 4 -7 4 -15z m210 -6 c0 -5 -7 -9 -15 -9
-15 0 -20 12 -9 23 8 8 24 -1 24 -14z m65 2 c3 -5 1 -12 -5 -16 -5 -3 -10 1
-10 9 0 18 6 21 15 7z m-667 -13 c18 -18 14 -38 -7 -38 -23 0 -35 15 -27 35 7
18 18 19 34 3z m-1181 -45 c-9 -9 -20 -14 -24 -10 -3 4 2 14 13 21 25 19 33
10 11 -11z m1843 7 c0 -5 -4 -10 -10 -10 -5 0 -10 5 -10 10 0 6 5 10 10 10 6
0 10 -4 10 -10z m-450 -4 c0 -3 -4 -8 -10 -11 -5 -3 -10 -1 -10 4 0 6 5 11 10
11 6 0 10 -2 10 -4z m110 -16 c0 -5 -4 -10 -10 -10 -5 0 -10 5 -10 10 0 6 5
10 10 10 6 0 10 -4 10 -10z m-250 -20 c0 -5 -4 -10 -10 -10 -5 0 -10 5 -10 10
0 6 5 10 10 10 6 0 10 -4 10 -10z m187 -15 c-4 -8 -11 -15 -17 -15 -7 0 -7 6
0 21 13 23 26 19 17 -6z m-517 5 c0 -5 -7 -10 -15 -10 -8 0 -15 5 -15 10 0 6
7 10 15 10 8 0 15 -4 15 -10z m-710 -4 c0 -3 -4 -8 -10 -11 -5 -3 -10 -1 -10
4 0 6 5 11 10 11 6 0 10 -2 10 -4z m994 -16 c4 -5 5 -13 1 -20 -5 -8 -12 -7
-25 5 -12 11 -20 13 -25 6 -3 -6 -13 -11 -21 -11 -12 0 -12 4 -4 20 8 16 17
19 38 14 15 -4 31 -10 36 -14z m546 0 c0 -5 -5 -10 -11 -10 -5 0 -7 5 -4 10 3
6 8 10 11 10 2 0 4 -4 4 -10z m-360 -40 c17 -17 28 -60 16 -60 -3 0 -21 9 -40
21 -38 22 -47 39 -20 39 8 0 12 5 9 10 -11 18 14 11 35 -10z m-496 -6 c11 -28
6 -39 -9 -20 -8 11 -15 23 -15 28 0 14 18 9 24 -8z m222 -11 c-10 -10 -19 5
-10 18 6 11 8 11 12 0 2 -7 1 -15 -2 -18z m-90 -38 c1 -36 -2 -45 -16 -45 -24
0 -30 9 -20 33 5 12 11 30 14 40 10 31 21 18 22 -28z m-441 5 c3 -5 -3 -10
-15 -10 -12 0 -18 5 -15 10 3 6 10 10 15 10 5 0 12 -4 15 -10z m615 6 c0 -3
-4 -8 -10 -11 -5 -3 -10 -1 -10 4 0 6 5 11 10 11 6 0 10 -2 10 -4z m-1255 -16
c3 -5 2 -10 -4 -10 -5 0 -13 5 -16 10 -3 6 -2 10 4 10 5 0 13 -4 16 -10z m235
1 c0 -12 -20 -25 -27 -18 -7 7 6 27 18 27 5 0 9 -4 9 -9z m315 -22 c4 -6 5
-12 2 -15 -7 -7 -37 7 -37 17 0 13 27 11 35 -2z m415 1 c0 -5 -7 -10 -15 -10
-8 0 -15 5 -15 10 0 6 7 10 15 10 8 0 15 -4 15 -10z m220 0 c0 -5 -4 -10 -10
-10 -5 0 -10 5 -10 10 0 6 5 10 10 10 6 0 10 -4 10 -10z m180 -25 c0 -14 -4
-25 -10 -25 -5 0 -10 11 -10 25 0 14 5 25 10 25 6 0 10 -11 10 -25z m220 -5
c0 -5 -4 -10 -10 -10 -5 0 -10 5 -10 10 0 6 5 10 10 10 6 0 10 -4 10 -10z
m-600 -24 c0 -3 -4 -8 -10 -11 -5 -3 -10 -1 -10 4 0 6 5 11 10 11 6 0 10 -2
10 -4z m365 -25 c-3 -6 -11 -8 -17 -5 -6 4 -5 9 3 15 16 10 23 4 14 -10z
m-1175 -11 c0 -5 -5 -10 -11 -10 -5 0 -7 5 -4 10 3 6 8 10 11 10 2 0 4 -4 4
-10z m1367 -6 c-3 -3 -12 -4 -19 -1 -8 3 -5 6 6 6 11 1 17 -2 13 -5z m-351
-69 c-7 -29 -26 -34 -26 -7 0 18 20 45 28 37 2 -2 2 -16 -2 -30z m-1412 13
c-16 -28 -27 -38 -36 -32 -5 3 -2 14 8 25 19 21 39 26 28 7z m1536 3 c0 -21
-13 -41 -26 -41 -17 0 -17 5 -4 31 11 20 30 26 30 10z m-1329 -24 c-1 -12 -15
-9 -19 4 -3 6 1 10 8 8 6 -3 11 -8 11 -12z m787 -44 c2 -8 -6 -13 -22 -13 -25
0 -33 10 -19 24 10 10 36 3 41 -11z m67 -53 c0 -22 -29 -18 -33 3 -3 14 1 18
15 15 10 -2 18 -10 18 -18z m-979 -4 c12 -13 12 -21 -3 -62 -10 -26 -24 -49
-30 -51 -10 -4 -9 6 2 37 10 29 12 47 5 60 -6 10 -10 21 -10 24 0 11 22 6 36
-8z m1064 -36 c0 -5 -5 -10 -11 -10 -5 0 -7 5 -4 10 3 6 8 10 11 10 2 0 4 -4
4 -10z m-306 -36 c18 -17 21 -40 6 -49 -8 -5 -40 43 -40 60 0 10 19 5 34 -11z
m-619 -13 c-3 -6 -14 -11 -23 -11 -15 1 -15 2 2 15 21 16 32 13 21 -4z m775
15 c0 -3 -4 -8 -10 -11 -5 -3 -10 -1 -10 4 0 6 5 11 10 11 6 0 10 -2 10 -4z
m-648 -38 c-7 -7 -12 -8 -12 -2 0 14 12 26 19 19 2 -3 -1 -11 -7 -17z m218
-24 c0 -8 -5 -12 -10 -9 -6 4 -8 11 -5 16 9 14 15 11 15 -7z m252 -36 c-18
-18 -33 1 -21 24 11 20 12 20 21 4 7 -12 7 -21 0 -28z m228 38 c0 -3 -4 -8
-10 -11 -5 -3 -10 -1 -10 4 0 6 5 11 10 11 6 0 10 -2 10 -4z m-820 -25 c13
-26 13 -31 -4 -31 -13 0 -26 20 -26 41 0 16 19 10 30 -10z m733 -46 c3 -16 0
-24 -7 -22 -14 4 -21 47 -8 47 5 0 12 -11 15 -25z m-709 -27 c3 -13 2 -26 -3
-31 -5 -5 -11 5 -13 22 -5 36 7 42 16 9z m151 -18 c3 -5 1 -10 -4 -10 -6 0
-11 5 -11 10 0 6 2 10 4 10 3 0 8 -4 11 -10z m265 -5 c-7 -9 -15 -13 -19 -10
-3 3 1 10 9 15 21 14 24 12 10 -5z m360 -5 c9 -16 8 -20 -5 -20 -8 0 -15 9
-15 20 0 11 2 20 5 20 2 0 9 -9 15 -20z m100 0 c0 -5 -5 -10 -11 -10 -5 0 -7
5 -4 10 3 6 8 10 11 10 2 0 4 -4 4 -10z m-365 -10 c3 -5 1 -10 -4 -10 -6 0
-11 5 -11 10 0 6 2 10 4 10 3 0 8 -4 11 -10z m-805 -20 c0 -5 -12 -10 -27 -10
-22 0 -25 2 -13 10 20 13 40 13 40 0z m608 -8 c2 -7 -3 -12 -12 -12 -9 0 -16
7 -16 16 0 17 22 14 28 -4z m292 3 c0 -8 -4 -15 -10 -15 -5 0 -10 7 -10 15 0
8 5 15 10 15 6 0 10 -7 10 -15z m-85 -75 c3 -5 -1 -10 -9 -10 -8 0 -18 5 -21
10 -3 6 1 10 9 10 8 0 18 -4 21 -10z m-289 -97 c-11 -11 -19 6 -11 24 8 17 8
17 12 0 3 -10 2 -21 -1 -24z m-181 7 c3 -5 -1 -10 -10 -10 -9 0 -13 5 -10 10
3 6 8 10 10 10 2 0 7 -4 10 -10z m35 -30 c0 -5 -4 -10 -10 -10 -5 0 -10 5 -10
10 0 6 5 10 10 10 6 0 10 -4 10 -10z m300 6 c0 -11 -19 -15 -25 -6 -3 5 1 10
9 10 9 0 16 -2 16 -4z m-470 -36 c0 -23 -10 -26 -28 -8 -18 18 -15 28 8 28 13
0 20 -7 20 -20z m512 -42 c-9 -9 -15 -9 -24 0 -9 9 -7 12 12 12 19 0 21 -3 12
-12z m-574 -67 c3 -8 -1 -12 -9 -9 -7 2 -15 10 -17 17 -3 8 1 12 9 9 7 -2 15
-10 17 -17z m502 9 c0 -5 -2 -10 -4 -10 -3 0 -8 5 -11 10 -3 6 -1 10 4 10 6 0
11 -4 11 -10z m-240 -70 c0 -5 -4 -10 -10 -10 -5 0 -10 5 -10 10 0 6 5 10 10
10 6 0 10 -4 10 -10z m-362 -107 c2 -9 -9 -13 -37 -13 -23 0 -41 5 -41 11 0 6
7 9 15 6 8 -4 17 -2 21 4 8 13 36 7 42 -8z m92 13 c0 -11 -19 -15 -25 -6 -3 5
1 10 9 10 9 0 16 -2 16 -4z m-95 -226 c3 -5 1 -10 -4 -10 -6 0 -11 5 -11 10 0
6 2 10 4 10 3 0 8 -4 11 -10z"/>
</g>
</svg>
