<?xml version="1.0" standalone="no"?>
<!DOCTYPE svg PUBLIC "-//W3C//DTD SVG 20010904//EN"
 "http://www.w3.org/TR/2001/REC-SVG-20010904/DTD/svg10.dtd">
<svg version="1.0" xmlns="http://www.w3.org/2000/svg"
 width="704.000000pt" height="704.000000pt" viewBox="0 0 704.000000 704.000000"
 preserveAspectRatio="xMidYMid meet">
<metadata>
Created by potrace 1.14, written by Peter Selinger 2001-2017
</metadata>
<g transform="translate(0.000000,704.000000) scale(0.100000,-0.100000)"
fill="#000000" stroke="none">
<path d="M3140 7024 c-525 -63 -1022 -238 -1450 -509 -891 -565 -1473 -1481
-1617 -2545 -26 -193 -26 -707 0 -900 110 -813 467 -1529 1043 -2090 562 -547
1250 -873 2039 -965 274 -32 680 -17 970 35 962 173 1801 745 2332 1589 286
454 470 1002 523 1562 16 165 8 623 -14 779 -78 559 -272 1072 -576 1525 -128
190 -245 330 -435 520 -190 190 -331 308 -520 435 -465 311 -977 498 -1550
565 -164 19 -583 18 -745 -1z m-495 -2714 l0 -225 -89 -3 c-65 -2 -92 1 -98
10 -4 7 -8 73 -8 146 l0 132 -225 0 -225 0 0 -685 0 -685 84 0 c119 0 116 2
116 -90 0 -62 -3 -79 -16 -84 -9 -3 -143 -6 -298 -6 -206 0 -285 3 -294 12
-17 17 -16 142 1 156 7 6 56 13 108 14 l94 3 0 680 0 680 -227 3 -228 2 0
-132 c0 -73 -4 -139 -8 -146 -6 -9 -33 -12 -98 -10 l-89 3 -3 215 c-1 118 0
220 3 227 3 11 152 13 752 11 l748 -3 0 -225z m570 -412 l0 -276 43 45 c62 65
117 86 234 91 154 7 241 -35 301 -145 38 -70 47 -152 47 -430 l0 -242 63 -3
62 -3 3 -43 c5 -65 -6 -72 -114 -72 -92 0 -142 10 -156 33 -4 7 -8 131 -8 277
0 146 -4 292 -10 324 -12 73 -48 129 -100 156 -56 28 -170 28 -225 -1 -50 -26
-110 -83 -125 -118 -7 -17 -9 -117 -8 -286 l3 -260 58 -3 58 -3 -3 -57 -3 -57
-195 0 -195 0 -3 57 -3 57 63 3 63 3 0 555 0 555 -62 3 -63 3 0 60 0 60 138
-3 137 -3 0 -277z m1485 -27 c20 -38 11 -58 -50 -108 -174 -139 -260 -318
-260 -538 0 -171 41 -292 140 -416 48 -60 155 -159 172 -159 15 0 8 -53 -9
-72 -24 -27 -45 -22 -109 25 -113 84 -201 200 -253 336 -42 108 -54 194 -49
330 4 95 11 132 35 203 54 154 148 288 266 375 64 47 100 54 117 24z m550 -16
c140 -103 253 -277 296 -455 21 -87 18 -282 -6 -374 -40 -158 -159 -335 -289
-430 -56 -42 -84 -45 -105 -14 -26 37 -19 54 53 111 113 92 202 226 236 358
23 86 23 262 0 348 -34 131 -123 267 -237 360 -71 58 -78 72 -52 109 21 31 49
28 104 -13z m625 -90 c56 -55 18 -155 -59 -155 -53 0 -91 37 -91 90 0 34 6 47
28 66 38 32 90 32 122 -1z m-20 -785 c36 -14 65 -81 64 -150 -1 -64 -15 -108
-47 -145 -26 -30 -87 -59 -108 -51 -19 7 -18 46 1 46 28 0 75 53 82 93 l6 37
-41 0 c-51 0 -81 24 -89 72 -12 76 56 127 132 98z"/>
</g>
</svg>
