<svg xmlns="http://www.w3.org/2000/svg" width="29.322" height="29.551" viewBox="0 0 29.322 29.551">
  <g id="float-whatsapp" transform="translate(-213.027 -606.363)">
    <path id="whatsapp" d="M18.8,16.849a8.715,8.715,0,0,1,1.861.84A8.27,8.27,0,0,1,22.373,18.7a.81.81,0,0,1,.038.286,4.021,4.021,0,0,1-.325,1.451,2.562,2.562,0,0,1-1.355,1.251,4.514,4.514,0,0,1-1.947.507,10.313,10.313,0,0,1-3.627-1.184,10.884,10.884,0,0,1-3.245-2.253,25.175,25.175,0,0,1-2.825-3.532,6.676,6.676,0,0,1-1.355-3.7V11.37A4.222,4.222,0,0,1,9.144,8.354a1.444,1.444,0,0,1,.993-.42,3.016,3.016,0,0,1,.344.029,3.069,3.069,0,0,0,.362.029.785.785,0,0,1,.506.124,1.377,1.377,0,0,1,.3.525q.153.382.63,1.68a11.344,11.344,0,0,1,.478,1.432,1.94,1.94,0,0,1-.658,1.1q-.658.7-.659.887a.544.544,0,0,0,.1.286,8.607,8.607,0,0,0,1.947,2.616,12.183,12.183,0,0,0,2.882,1.928.845.845,0,0,0,.42.134q.286,0,1.031-.926t.993-.926ZM14.928,26.967a11.67,11.67,0,0,0,4.649-.954,11.806,11.806,0,0,0,6.385-6.385,11.8,11.8,0,0,0,0-9.3,11.806,11.806,0,0,0-6.385-6.385,11.8,11.8,0,0,0-9.3,0A11.806,11.806,0,0,0,3.894,10.33,11.871,11.871,0,0,0,5.231,22L3.723,26.451l4.62-1.469a11.738,11.738,0,0,0,6.585,1.985Zm0-26.382A13.987,13.987,0,0,1,20.512,1.73,14.228,14.228,0,0,1,28.176,9.4a14.182,14.182,0,0,1,0,11.167,14.228,14.228,0,0,1-7.665,7.665,13.979,13.979,0,0,1-5.583,1.145A14.174,14.174,0,0,1,7.96,27.578L0,30.136,2.6,22.4A14.311,14.311,0,0,1,1.68,9.4,14.228,14.228,0,0,1,9.345,1.73,13.963,13.963,0,0,1,14.928.585Z" transform="translate(213.027 605.778)" fill="#FFF"/>
  </g>
</svg>
